<svg xmlns="http://www.w3.org/2000/svg" viewBox="0 0 541 285"><defs><style>.a,.b,.d{fill:none;stroke-miterlimit:10;}.a{stroke:#e40002;stroke-width:10px;}.b{stroke:#00e4e2;stroke-width:16px;}.c{fill:#0074e4;}.d{stroke:#0074e4;stroke-width:8px;}</style></defs><path class="a" d="M80.53,206.33A200.08,200.08,0,0,1,271,67.5c110.46,0,200,89.54,200,200"/><path class="b" d="M57,199.37C86.3,109.19,171,44,271,44c124.26,0,225,100.74,225,225"/><path class="c" d="M28.12,250.37l-4,18.7H10.4l10.87-51.4h13.6q8.87,0,13.57,3.52t4.71,10.58a18,18,0,0,1-2.49,9.56,15.81,15.81,0,0,1-7.42,6.22l7.87,18.14,1.41,3.38h-15l-6.85-18.7Zm2.22-10.45h1.79A7.27,7.27,0,0,0,37.44,238a7.16,7.16,0,0,0,2-5.36,4.36,4.36,0,0,0-1.22-3.33,5,5,0,0,0-3.53-1.14H32.8Z"/><path class="c" d="M90.52,269.07H79.66l.35-4.33h-.28a12,12,0,0,1-4.25,3.89,11.45,11.45,0,0,1-5.17,1.14q-5.55,0-8.44-3.92T59,254.58a34.81,34.81,0,0,1,2.57-12.83A24.43,24.43,0,0,1,68,231.87a13.1,13.1,0,0,1,8.67-3.34,10.08,10.08,0,0,1,5.2,1.32,11.7,11.7,0,0,1,4,4.31h.28l1.86-4.92H99ZM75.9,258.84a4.42,4.42,0,0,0,3.36-2.06,15.9,15.9,0,0,0,2.55-5.5,25.48,25.48,0,0,0,.94-6.75,8.13,8.13,0,0,0-.7-3.67,2.29,2.29,0,0,0-2.18-1.39q-2.67,0-4.83,4.44a22.39,22.39,0,0,0-2.16,9.9C72.88,257.16,73.88,258.84,75.9,258.84Z"/><path class="c" d="M114.15,269.07H100.54L109,229.24h13.67Zm-3.55-48.59a7,7,0,0,1,2.09-5.48,8.51,8.51,0,0,1,5.85-1.87,8.16,8.16,0,0,1,4.94,1.29,4.28,4.28,0,0,1,1.74,3.67,7.07,7.07,0,0,1-2,5.43,8.22,8.22,0,0,1-5.87,1.92Q110.61,225.44,110.6,220.48Z"/><path class="c" d="M150.78,242.35a3.07,3.07,0,0,0-.77-2.27,2.59,2.59,0,0,0-1.86-.75q-2,0-3.71,2.49a22.28,22.28,0,0,0-2.8,7.81l-4.08,19.44H124l8.4-39.83h10.86l-.42,5.55h.28a12.33,12.33,0,0,1,4.56-4.8,13,13,0,0,1,6.41-1.46,10,10,0,0,1,7.74,3c1.85,2,2.77,4.78,2.77,8.31a40.2,40.2,0,0,1-.88,8.05l-4.46,21.17H145.61l4.54-21.73A22.46,22.46,0,0,0,150.78,242.35Z"/><path class="c" d="M191,269.77a11,11,0,0,1-5.1-1.12,14,14,0,0,1-4.4-4h-.28l-1.72,4.4H168.75l11.56-54.7h13.61l-1.72,8.12A63.69,63.69,0,0,1,189,233.07h.28A19,19,0,0,1,192,230.2a8.41,8.41,0,0,1,2.34-1.23,9.47,9.47,0,0,1,3-.44,9.82,9.82,0,0,1,8.37,3.92q2.91,3.93,2.91,11.27a35.46,35.46,0,0,1-2.47,12.73,24.48,24.48,0,0,1-6.42,9.89A13,13,0,0,1,191,269.77Zm.73-30.3a4.37,4.37,0,0,0-3.34,2,15.21,15.21,0,0,0-2.51,5.41,26.3,26.3,0,0,0-.93,6.93,8.4,8.4,0,0,0,.67,3.66,2.18,2.18,0,0,0,2.07,1.37c1.15,0,2.27-.69,3.38-2.08a16.19,16.19,0,0,0,2.67-5.48,23.43,23.43,0,0,0,1-6.75C194.8,241.15,193.79,239.47,191.77,239.47Z"/><path class="c" d="M246.13,269.07H235.26l.35-4.33h-.28a12,12,0,0,1-4.25,3.89,11.45,11.45,0,0,1-5.17,1.14q-5.55,0-8.44-3.92t-2.88-11.27a35,35,0,0,1,2.57-12.83,24.43,24.43,0,0,1,6.48-9.88,13.12,13.12,0,0,1,8.67-3.34,10.08,10.08,0,0,1,5.2,1.32,11.7,11.7,0,0,1,4,4.31h.28l1.87-4.92h10.89ZM231.5,258.84a4.42,4.42,0,0,0,3.36-2.06,15.9,15.9,0,0,0,2.55-5.5,25.5,25.5,0,0,0,1-6.75,8.12,8.12,0,0,0-.71-3.67,2.29,2.29,0,0,0-2.18-1.39q-2.67,0-4.83,4.44a22.39,22.39,0,0,0-2.16,9.9C228.48,257.16,229.48,258.84,231.5,258.84Z"/><path class="c" d="M269.75,269.07h-13.6l11.56-54.7h13.61Z"/><path class="c" d="M293.17,269.07H279.56l11.57-54.7h13.6Z"/><path class="c" d="M333.49,255.25q0,7-4.57,10.76t-13.15,3.76q-7.8,0-12.52-2.21V256.62a25.66,25.66,0,0,0,6,2.46,22.72,22.72,0,0,0,5.62.71,7.79,7.79,0,0,0,3.59-.65,2,2,0,0,0,1.19-1.81,2.88,2.88,0,0,0-.91-2.13,26.83,26.83,0,0,0-4.57-3,14.52,14.52,0,0,1-5.43-4.68,11.57,11.57,0,0,1-1.71-6.43q0-6,4.26-9.32t12.09-3.27a26.33,26.33,0,0,1,7.17.92,24.25,24.25,0,0,1,6.29,2.81l-4.25,8.86a23.45,23.45,0,0,0-4.8-2.41,12.82,12.82,0,0,0-4.27-.9q-2.67,0-2.67,2.4A2.19,2.19,0,0,0,322,242a29.56,29.56,0,0,0,3.6,2Q333.49,247.95,333.49,255.25Z"/><path class="d" d="M34.65,193.36C66.7,92.26,161.3,19,273,19c138.07,0,250,111.93,250,250l-182,1"/></svg>